<?xml version="1.0" encoding="UTF-8"?>
<svg xmlns="http://www.w3.org/2000/svg" xmlns:xlink="http://www.w3.org/1999/xlink" width="1000px" height="1000px" viewBox="0 0 1000 1000" version="1.1">
<g id="surface1">
<path style=" stroke:none;fill-rule:nonzero;fill:rgb(0%,34.901962%,61.176473%);fill-opacity:1;" d="M 743.640625 640.75 C 747.5625 633.953125 750 626.296875 750 619.421875 L 750 380.734375 C 750 373.859375 747.5625 366.203125 743.640625 359.421875 L 500 500.078125 Z M 743.640625 640.75 "/>
<path style=" stroke:none;fill-rule:nonzero;fill:rgb(0%,26.666668%,50.980395%);fill-opacity:1;" d="M 521.65625 776.25 L 728.34375 656.921875 C 734.296875 653.484375 739.71875 647.546875 743.640625 640.75 L 500 500.078125 L 256.359375 640.75 C 260.28125 647.546875 265.703125 653.484375 271.65625 656.921875 L 478.34375 776.25 C 490.25 783.125 509.75 783.125 521.65625 776.25 Z M 521.65625 776.25 "/>
<path style=" stroke:none;fill-rule:nonzero;fill:rgb(39.607844%,60.392159%,82.352942%);fill-opacity:1;" d="M 743.640625 359.421875 C 739.71875 352.609375 734.296875 346.6875 728.34375 343.25 L 521.65625 223.90625 C 509.75 217.03125 490.25 217.03125 478.34375 223.90625 L 271.65625 343.25 C 259.75 350.125 250 367 250 380.75 L 250 619.421875 C 250 626.296875 252.4375 633.953125 256.359375 640.75 L 500 500.078125 Z M 743.640625 359.421875 "/>
<path style=" stroke:none;fill-rule:nonzero;fill:rgb(100%,100%,100%);fill-opacity:1;" d="M 500 666.75 C 408.09375 666.75 333.328125 591.984375 333.328125 500.078125 C 333.328125 408.171875 408.09375 333.40625 500 333.40625 C 559.296875 333.40625 614.609375 365.328125 644.328125 416.6875 L 572.203125 458.4375 C 557.261719 432.6875 529.769531 416.816406 500 416.75 C 454.003906 416.808594 416.730469 454.082031 416.671875 500.078125 C 416.714844 546.085938 453.992188 583.378906 500 583.4375 C 529.773438 583.371094 557.265625 567.488281 572.203125 541.734375 L 644.328125 583.46875 C 614.449219 634.917969 559.492188 666.621094 500 666.734375 Z M 500 666.75 "/>
<path style=" stroke:none;fill-rule:nonzero;fill:rgb(100%,100%,100%);fill-opacity:1;" d="M 666.671875 490.828125 L 648.125 490.828125 L 648.125 472.296875 L 629.609375 472.296875 L 629.609375 490.828125 L 611.09375 490.828125 L 611.09375 509.34375 L 629.609375 509.34375 L 629.609375 527.859375 L 648.125 527.859375 L 648.125 509.34375 L 666.65625 509.34375 L 666.65625 490.828125 Z M 736.109375 490.828125 L 717.59375 490.828125 L 717.59375 472.296875 L 699.0625 472.296875 L 699.0625 490.828125 L 680.546875 490.828125 L 680.546875 509.34375 L 699.0625 509.34375 L 699.0625 527.859375 L 717.578125 527.859375 L 717.578125 509.34375 L 736.09375 509.34375 L 736.09375 490.828125 Z M 736.109375 490.828125 "/>
</g>
</svg>
