<?xml version="1.0" encoding="UTF-8"?>
<svg xmlns="http://www.w3.org/2000/svg" xmlns:xlink="http://www.w3.org/1999/xlink" width="800px" height="800px" viewBox="0 0 400 400" version="1.1">
<g id="surface1">
<path style=" stroke:none;fill-rule:nonzero;fill:rgb(36.470589%,52.941179%,63.137257%);fill-opacity:1;" d="M 122.441406 285.289062 L 111.613281 285.289062 C 111.230469 267.011719 110.175781 249.824219 108.449219 233.722656 L 108.355469 233.722656 L 91.867188 285.289062 L 83.621094 285.289062 L 67.234375 233.722656 L 67.136719 233.722656 C 65.921875 249.183594 65.15625 266.371094 64.839844 285.289062 L 54.96875 285.289062 C 55.605469 262.285156 57.203125 240.71875 59.757812 220.589844 L 73.179688 220.589844 L 88.800781 268.128906 L 88.898438 268.128906 L 104.613281 220.589844 L 117.457031 220.589844 C 120.269531 244.167969 121.929688 265.734375 122.441406 285.289062 M 169.40625 237.550781 C 164.996094 261.480469 159.179688 278.863281 151.960938 289.714844 C 146.335938 298.070312 140.171875 302.25 133.460938 302.25 C 131.671875 302.25 129.464844 301.710938 126.847656 300.640625 L 126.847656 294.871094 C 128.128906 295.054688 129.628906 295.160156 131.351562 295.160156 C 134.488281 295.160156 137.003906 294.296875 138.925781 292.570312 C 141.222656 290.464844 142.375 288.097656 142.375 285.480469 C 142.375 283.683594 141.476562 280.011719 139.691406 274.457031 L 127.808594 237.550781 L 138.445312 237.550781 L 146.976562 265.152344 C 148.890625 271.417969 149.691406 275.792969 149.371094 278.285156 C 154.035156 265.828125 157.292969 252.246094 159.148438 237.546875 L 169.40625 237.546875 Z M 169.40625 237.550781 "/>
<path style=" stroke:none;fill-rule:nonzero;fill:rgb(97.254902%,59.607846%,11.372549%);fill-opacity:1;" d="M 313.554688 285.289062 L 282.792969 285.289062 L 282.792969 220.589844 L 293.140625 220.589844 L 293.140625 277.324219 L 313.554688 277.324219 Z M 274.738281 286.851562 L 262.84375 280.980469 C 263.898438 280.117188 264.910156 279.179688 265.816406 278.09375 C 270.871094 272.152344 273.394531 263.371094 273.394531 251.738281 C 273.394531 230.332031 264.996094 219.625 248.1875 219.625 C 239.949219 219.625 233.519531 222.339844 228.921875 227.777344 C 223.871094 233.71875 221.351562 242.46875 221.351562 254.039062 C 221.351562 265.414062 223.585938 273.757812 228.054688 279.046875 C 232.148438 283.84375 238.3125 286.242188 246.5625 286.242188 C 249.636719 286.242188 252.460938 285.867188 255.03125 285.105469 L 270.515625 294.121094 Z M 236.210938 272.339844 C 233.589844 268.128906 232.277344 261.359375 232.277344 252.027344 C 232.277344 235.738281 237.226562 227.582031 247.136719 227.582031 C 252.316406 227.582031 256.113281 229.535156 258.539062 233.425781 C 261.15625 237.648438 262.472656 244.351562 262.472656 253.554688 C 262.472656 269.980469 257.519531 278.191406 247.617188 278.191406 C 242.433594 278.195312 238.636719 276.25 236.210938 272.339844 M 216.839844 267.355469 C 216.839844 272.84375 214.828125 277.34375 210.804688 280.867188 C 206.777344 284.378906 201.378906 286.140625 194.613281 286.140625 C 188.285156 286.140625 182.152344 284.117188 176.210938 280.097656 L 178.992188 274.542969 C 184.105469 277.101562 188.730469 278.371094 192.882812 278.371094 C 196.78125 278.371094 199.828125 277.507812 202.039062 275.792969 C 204.246094 274.074219 205.5625 271.660156 205.5625 268.609375 C 205.5625 264.765625 202.882812 261.480469 197.964844 258.730469 C 193.429688 256.238281 184.359375 251.03125 184.359375 251.03125 C 179.445312 247.449219 176.984375 243.605469 176.984375 237.269531 C 176.984375 232.023438 178.820312 227.789062 182.492188 224.570312 C 186.167969 221.335938 190.914062 219.726562 196.726562 219.726562 C 202.734375 219.726562 208.195312 221.335938 213.109375 224.519531 L 210.617188 230.078125 C 206.410156 228.289062 202.257812 227.398438 198.164062 227.398438 C 194.847656 227.398438 192.285156 228.195312 190.503906 229.796875 C 188.710938 231.390625 187.601562 233.429688 187.601562 235.933594 C 187.601562 239.757812 190.339844 243.085938 195.390625 245.890625 C 199.988281 248.386719 209.28125 253.683594 209.28125 253.683594 C 214.324219 257.257812 216.839844 261.070312 216.839844 267.355469 "/>
<path style=" stroke:none;fill-rule:nonzero;fill:rgb(36.470589%,52.941179%,63.137257%);fill-opacity:1;" d="M 326.542969 198.917969 C 320.285156 198.757812 315.441406 199.386719 311.375 201.109375 C 310.203125 201.578125 308.335938 201.578125 308.171875 203.058594 C 308.808594 203.6875 308.878906 204.699219 309.429688 205.566406 C 310.367188 207.128906 312.003906 209.234375 313.496094 210.328125 C 315.132812 211.585938 316.777344 212.828125 318.503906 213.921875 C 321.542969 215.804688 324.988281 216.898438 327.953125 218.773438 C 329.679688 219.863281 331.394531 221.273438 333.121094 222.449219 C 333.972656 223.074219 334.515625 224.089844 335.621094 224.480469 L 335.621094 224.242188 C 335.066406 223.539062 334.910156 222.519531 334.367188 221.738281 L 332.019531 219.476562 C 329.75 216.429688 326.933594 213.769531 323.894531 211.582031 C 321.390625 209.859375 315.914062 207.515625 314.902344 204.632812 L 314.742188 204.472656 C 316.460938 204.3125 318.503906 203.6875 320.136719 203.207031 C 322.796875 202.507812 325.222656 202.667969 327.949219 201.964844 C 329.207031 201.652344 330.449219 201.257812 331.710938 200.871094 L 331.710938 200.167969 C 330.296875 198.757812 329.289062 196.886719 327.800781 195.554688 C 323.820312 192.117188 319.433594 188.753906 314.902344 185.941406 C 312.472656 184.375 309.351562 183.363281 306.765625 182.03125 C 305.835938 181.5625 304.265625 181.328125 303.71875 180.546875 C 302.316406 178.824219 301.527344 176.5625 300.511719 174.527344 C 298.25 170.230469 296.054688 165.464844 294.105469 160.917969 C 292.695312 157.875 291.835938 154.832031 290.117188 152.011719 C 282.058594 138.722656 273.3125 130.675781 259.863281 122.777344 C 256.972656 121.132812 253.535156 120.429688 249.863281 119.566406 L 243.996094 119.257812 C 242.746094 118.710938 241.492188 117.222656 240.402344 116.519531 C 235.9375 113.707031 224.453125 107.609375 221.171875 115.660156 C 219.058594 120.746094 224.296875 125.746094 226.097656 128.328125 C 227.425781 130.117188 229.148438 132.15625 230.078125 134.191406 C 230.628906 135.519531 230.78125 136.929688 231.332031 138.335938 C 232.585938 141.773438 233.753906 145.601562 235.398438 148.8125 C 236.257812 150.449219 237.191406 152.167969 238.289062 153.648438 C 238.917969 154.515625 240.007812 154.898438 240.246094 156.3125 C 239.15625 157.867188 239.070312 160.21875 238.445312 162.171875 C 235.632812 171.007812 236.730469 181.949219 240.71875 188.441406 C 241.964844 190.394531 244.941406 194.695312 248.921875 193.046875 C 252.445312 191.640625 251.664062 187.1875 252.675781 183.277344 C 252.910156 182.335938 252.757812 181.714844 253.226562 181.097656 L 253.226562 181.25 C 254.316406 183.4375 255.417969 185.542969 256.425781 187.738281 C 258.851562 191.5625 263.074219 195.550781 266.59375 198.203125 C 268.464844 199.617188 269.949219 202.039062 272.296875 202.902344 L 272.296875 202.667969 L 272.140625 202.667969 C 271.664062 201.964844 270.972656 201.652344 270.347656 201.109375 C 268.9375 199.699219 267.375 197.980469 266.28125 196.417969 C 263.003906 192.039062 260.105469 187.191406 257.53125 182.1875 C 256.269531 179.757812 255.183594 177.105469 254.167969 174.683594 C 253.695312 173.746094 253.695312 172.335938 252.910156 171.867188 C 251.734375 173.585938 250.023438 175.070312 249.164062 177.175781 C 247.675781 180.542969 247.523438 184.683594 246.96875 188.992188 L 246.660156 189.144531 C 244.171875 188.515625 243.304688 185.941406 242.359375 183.753906 C 240.015625 178.199219 239.625 169.285156 241.65625 162.878906 C 242.199219 161.238281 244.554688 156.078125 243.613281 154.519531 C 243.144531 153.023438 241.578125 152.171875 240.71875 150.992188 C 239.710938 149.511719 238.605469 147.636719 237.902344 145.992188 C 236.027344 141.617188 235.085938 136.765625 233.066406 132.394531 C 232.121094 130.355469 230.484375 128.246094 229.15625 126.371094 C 227.667969 124.261719 226.027344 122.773438 224.851562 120.273438 C 224.460938 119.414062 223.914062 118.007812 224.539062 117.070312 C 224.695312 116.445312 225.011719 116.210938 225.636719 116.054688 C 226.648438 115.195312 229.542969 116.285156 230.558594 116.757812 C 233.457031 117.925781 235.878906 119.023438 238.296875 120.664062 C 239.390625 121.449219 240.566406 122.933594 241.96875 123.324219 L 243.613281 123.324219 C 246.109375 123.867188 248.925781 123.476562 251.277344 124.183594 C 255.417969 125.511719 259.167969 127.464844 262.535156 129.574219 C 272.773438 136.066406 281.214844 145.292969 286.917969 156.3125 C 287.851562 158.109375 288.25 159.753906 289.101562 161.625 C 290.75 165.457031 292.785156 169.367188 294.421875 173.121094 C 296.0625 176.792969 297.628906 180.542969 299.972656 183.59375 C 301.144531 185.234375 305.84375 186.09375 307.953125 186.953125 C 309.511719 187.65625 311.9375 188.277344 313.34375 189.136719 C 316.003906 190.777344 318.652344 192.65625 321.152344 194.460938 C 322.398438 195.398438 326.3125 197.351562 326.542969 198.917969 M 246.804688 130.984375 C 245.722656 130.972656 244.648438 131.105469 243.605469 131.375 L 243.605469 131.535156 L 243.753906 131.535156 C 244.386719 132.78125 245.480469 133.648438 246.257812 134.738281 C 246.890625 135.992188 247.4375 137.234375 248.054688 138.488281 L 248.203125 138.332031 C 249.304688 137.550781 249.855469 136.300781 249.855469 134.421875 C 249.378906 133.871094 249.304688 133.332031 248.910156 132.78125 C 248.449219 132 247.4375 131.609375 246.804688 130.984375 "/>
<path style=" stroke:none;fill-rule:nonzero;fill:rgb(97.254902%,59.607846%,11.372549%);fill-opacity:1;" d="M 333.988281 285.277344 L 335.609375 285.277344 L 335.609375 277.351562 L 333.179688 277.351562 L 331.199219 282.761719 L 329.042969 277.351562 L 326.703125 277.351562 L 326.703125 285.277344 L 328.234375 285.277344 L 328.234375 279.246094 L 328.320312 279.246094 L 330.578125 285.277344 L 331.742188 285.277344 L 333.988281 279.246094 Z M 320.941406 285.277344 L 322.65625 285.277344 L 322.65625 278.695312 L 324.898438 278.695312 L 324.898438 277.347656 L 318.605469 277.347656 L 318.605469 278.695312 L 320.9375 278.695312 Z M 320.941406 285.277344 "/>
</g>
</svg>
