<?xml version="1.0" encoding="UTF-8"?>
<svg xmlns="http://www.w3.org/2000/svg" xmlns:xlink="http://www.w3.org/1999/xlink" width="800px" height="800px" viewBox="0 0 400 400" version="1.1">
<defs>
<linearGradient id="linear0" gradientUnits="userSpaceOnUse" x1="-133.268005" y1="-202.910004" x2="-133.197998" y2="-202.839996" gradientTransform="matrix(2367.250061,0,0,2372.624969,315538.256836,481489.648438)">
<stop offset="0" style="stop-color:rgb(21.960784%,49.411765%,72.156863%);stop-opacity:1;"/>
<stop offset="1" style="stop-color:rgb(21.176471%,41.176471%,58.039216%);stop-opacity:1;"/>
</linearGradient>
<linearGradient id="linear1" gradientUnits="userSpaceOnUse" x1="-133.574997" y1="-203.203003" x2="-133.494995" y2="-203.132996" gradientTransform="matrix(2367.250061,0,0,2372.624969,316363.256836,482292.773438)">
<stop offset="0" style="stop-color:rgb(100%,87.843137%,32.156863%);stop-opacity:1;"/>
<stop offset="1" style="stop-color:rgb(100%,76.470588%,19.215686%);stop-opacity:1;"/>
</linearGradient>
</defs>
<g id="surface1">
<path style=" stroke:none;fill-rule:nonzero;fill:url(#linear0);" d="M 198.5625 26.25 C 109.8125 26.25 115.425781 64.625 115.425781 64.625 L 115.425781 104.5 L 199.824219 104.5 L 199.824219 117 L 81.8125 117 C 81.8125 117 25 110 25 200.0625 C 25 290.125 75.164062 286.460938 75.164062 286.460938 L 104.125 286.460938 L 104.125 244.449219 C 104.125 244.449219 102.5 194.289062 152.875 194.289062 L 237.398438 194.289062 C 237.398438 194.289062 284.550781 195.039062 284.550781 148.636719 L 284.550781 72.5 C 284.550781 72.5 291.699219 26.101562 199.023438 26.101562 Z M 151.914062 52.960938 C 160.292969 52.75 167.253906 59.371094 167.464844 67.75 C 167.675781 76.128906 161.054688 83.09375 152.675781 83.304688 C 144.296875 83.511719 137.335938 76.890625 137.125 68.511719 L 137.125 68.261719 C 137.125 59.882812 143.917969 53.085938 152.300781 53.085938 Z M 151.914062 52.960938 "/>
<path style=" stroke:none;fill-rule:nonzero;fill:url(#linear1);" d="M 201.0625 373.875 C 289.8125 373.875 284.199219 335.375 284.199219 335.375 L 284.199219 295.625 L 199.8125 295.625 L 199.8125 283.125 L 318.1875 283.125 C 318.1875 283.125 375 289.476562 375 199.9375 C 375 110.398438 324.835938 113.539062 324.835938 113.539062 L 295.5 113.539062 L 295.5 155 C 295.5 155 297.125 205.164062 246.75 205.164062 L 162.1875 205.164062 C 162.1875 205.164062 115 204.449219 115 250.851562 L 115 327.5 C 115 327.5 107.851562 373.898438 200.523438 373.898438 L 201.023438 373.898438 Z M 247.710938 347.039062 C 239.332031 347.25 232.371094 340.628906 232.160156 332.25 C 231.949219 323.871094 238.570312 316.90625 246.949219 316.695312 C 255.328125 316.488281 262.289062 323.109375 262.5 331.488281 L 262.5 331.863281 C 262.5 340.242188 255.707031 347.039062 247.324219 347.039062 Z M 247.710938 347.039062 "/>
</g>
</svg>
